<?xml version="1.0" encoding="utf-8"?>
<!-- Generator: Adobe Illustrator 17.0.0, SVG Export Plug-In . SVG Version: 6.00 Build 0)  -->
<!DOCTYPE svg PUBLIC "-//W3C//DTD SVG 1.1//EN" "http://www.w3.org/Graphics/SVG/1.1/DTD/svg11.dtd">
<svg version="1.1" id="Layer_1" xmlns:sketch="http://www.bohemiancoding.com/sketch/ns"
	 xmlns="http://www.w3.org/2000/svg" xmlns:xlink="http://www.w3.org/1999/xlink" x="0px" y="0px" width="34.417px"
	 height="34.417px" viewBox="-22.417 -22.417 34.417 34.417" enable-background="new -22.417 -22.417 34.417 34.417"
	 xml:space="preserve">
<title>Page 1</title>
<desc>Created with Sketch.</desc>
<g id="Page-1_1_" sketch:type="MSPage">
	<g id="oparador---perfil-cliente" transform="translate(-614.000000, -100.000000)" sketch:type="MSArtboardGroup">
		<g id="Page-1" transform="translate(614.000000, 100.000000)" sketch:type="MSLayerGroup">
			<path id="Fill-1" sketch:type="MSShapeGroup" fill="#262E31" d="M6.349,11.935H-16.77c-0.924,0-1.734-0.737-1.734-1.696V-4.462
				h-2.833l-0.174-0.171c-0.925-0.904-0.925-2.317,0-3.221l14.275-13.964c0.521-0.51,1.271-0.737,2.023-0.622
				c0.753-0.112,1.502,0.112,2.023,0.622L11.087-7.855c0.464,0.454,0.753,1.187,0.693,1.867c-0.057,0.565-0.289,1.074-0.753,1.414
				l-0.168,0.112H8.083v14.701C8.083,11.198,7.273,11.935,6.349,11.935L6.349,11.935z M-20.816-5.593h3.468v15.832
				c0,0.338,0.232,0.565,0.578,0.565H6.349c0.346,0,0.578-0.227,0.578-0.565V-5.593h3.525c0.115,0,0.175-0.338,0.175-0.454
				c0-0.338-0.115-0.736-0.346-0.96L-4.054-21.031c-0.289-0.283-0.692-0.394-1.042-0.283h-0.228
				c-0.404-0.056-0.81,0.057-1.042,0.283L-20.702-7.007C-21.105-6.668-21.162-6.159-20.816-5.593L-20.816-5.593z"/>
			<path id="Fill-2" sketch:type="MSShapeGroup" fill="#262E31" d="M-1.164,11.935h-8.092V0.626h8.092V11.935z M-8.1,10.804h5.78
				V1.757H-8.1V10.804z"/>
			<path id="Fill-3" sketch:type="MSShapeGroup" fill="#262E31" d="M-17.523-4.634l-0.809-0.792l11.906-12.213
				c0.635-0.677,1.791-0.677,2.426,0L7.906-5.425l-0.81,0.792l-11.96-12.212c-0.174-0.227-0.578-0.227-0.752,0L-17.523-4.634z"/>
		</g>
	</g>
</g>
</svg>
