<?xml version="1.0" encoding="utf-8"?>
<!-- Generator: Adobe Illustrator 17.0.0, SVG Export Plug-In . SVG Version: 6.00 Build 0)  -->
<!DOCTYPE svg PUBLIC "-//W3C//DTD SVG 1.1//EN" "http://www.w3.org/Graphics/SVG/1.1/DTD/svg11.dtd">
<svg version="1.1" id="Layer_1" xmlns:sketch="http://www.bohemiancoding.com/sketch/ns"
	 xmlns="http://www.w3.org/2000/svg" xmlns:xlink="http://www.w3.org/1999/xlink" x="0px" y="0px" width="28.375px"
	 height="28.375px" viewBox="-16.375 -16.375 28.375 28.375" enable-background="new -16.375 -16.375 28.375 28.375"
	 xml:space="preserve">
<title>Page 1</title>
<desc>Created with Sketch.</desc>
<g id="Page-1_1_" sketch:type="MSPage">
	<g id="oparador---perfil-cliente" transform="translate(-404.000000, -42.000000)" sketch:type="MSArtboardGroup">
		<g id="Page-1" transform="translate(404.000000, 42.000000)" sketch:type="MSLayerGroup">
			<path id="Fill-1" sketch:type="MSShapeGroup" fill="#5D5D5D" d="M10.735,11.87c-0.289,0-0.581-0.111-0.802-0.332l-25.846-25.846
				c-0.443-0.442-0.443-1.162,0-1.604c0.442-0.443,1.162-0.443,1.604,0L11.538,9.934c0.443,0.442,0.443,1.162,0,1.604
				C11.316,11.759,11.025,11.87,10.735,11.87L10.735,11.87z"/>
			<path id="Fill-2" sketch:type="MSShapeGroup" fill="#5D5D5D" d="M-15.11,11.87c-0.29,0-0.581-0.111-0.802-0.332
				c-0.443-0.442-0.443-1.162,0-1.604L9.934-15.913c0.442-0.443,1.162-0.443,1.604,0c0.443,0.442,0.443,1.162,0,1.604
				l-25.846,25.846C-14.53,11.759-14.819,11.87-15.11,11.87L-15.11,11.87z"/>
		</g>
	</g>
</g>
</svg>
