<?xml version="1.0" encoding="utf-8"?>
<!-- Generator: Adobe Illustrator 17.0.0, SVG Export Plug-In . SVG Version: 6.00 Build 0)  -->
<!DOCTYPE svg PUBLIC "-//W3C//DTD SVG 1.1//EN" "http://www.w3.org/Graphics/SVG/1.1/DTD/svg11.dtd">
<svg version="1.1" id="Layer_1" xmlns:sketch="http://www.bohemiancoding.com/sketch/ns"
	 xmlns="http://www.w3.org/2000/svg" xmlns:xlink="http://www.w3.org/1999/xlink" x="0px" y="0px" width="82px" height="42px"
	 viewBox="0 0 82 42" enable-background="new 0 0 82 42" xml:space="preserve">
<title>Page 1</title>
<desc>Created with Sketch.</desc>
<g id="Page-1_1_" sketch:type="MSPage">
	<g id="oparador---perfil-cliente" transform="translate(-128.000000, -27.000000)" sketch:type="MSArtboardGroup">
		<g id="Page-1" transform="translate(128.000000, 27.000000)" sketch:type="MSLayerGroup">
			<g id="Clip-2">
			</g>
			<defs>
				<filter id="Adobe_OpacityMaskFilter" filterUnits="userSpaceOnUse" x="0" y="0.046" width="81.689" height="41.954">
					<feColorMatrix  type="matrix" values="1 0 0 0 0  0 1 0 0 0  0 0 1 0 0  0 0 0 1 0"/>
				</filter>
			</defs>
			<mask maskUnits="userSpaceOnUse" x="0" y="0.046" width="81.689" height="41.954" id="mask-2">
				<g filter="url(#Adobe_OpacityMaskFilter)">
					<path id="path-1" fill="#FFFFFF" d="M0,0.046h81.689V42H0V0.046z"/>
				</g>
			</mask>
			<path id="Fill-1" sketch:type="MSShapeGroup" mask="url(#mask-2)" fill="#5D5D5D" d="M78.53,2.464
				c-0.19-0.107-0.494-0.16-0.912-0.16h-0.643V3.86h0.681c0.318,0,0.558-0.032,0.718-0.096c0.295-0.117,0.441-0.341,0.441-0.671
				C78.815,2.78,78.72,2.571,78.53,2.464L78.53,2.464z M77.718,1.788c0.53,0,0.919,0.051,1.166,0.154
				c0.442,0.185,0.663,0.548,0.663,1.087c0,0.385-0.139,0.667-0.416,0.848c-0.148,0.096-0.354,0.166-0.618,0.209
				c0.334,0.053,0.579,0.193,0.733,0.42c0.155,0.228,0.232,0.449,0.232,0.665v0.314c0,0.099,0.004,0.205,0.011,0.319
				c0.007,0.114,0.02,0.188,0.037,0.224l0.027,0.053h-0.706c-0.003-0.014-0.007-0.028-0.01-0.043
				c-0.004-0.014-0.007-0.03-0.011-0.048l-0.016-0.138v-0.34c0-0.496-0.134-0.823-0.403-0.982c-0.159-0.093-0.438-0.139-0.838-0.139
				h-0.594v1.689h-0.753V1.788H77.718z M75.427,1.569c-0.651,0.657-0.976,1.45-0.976,2.381c0,0.938,0.323,1.737,0.97,2.397
				c0.65,0.661,1.44,0.991,2.37,0.991c0.93,0,1.72-0.33,2.37-0.991s0.976-1.46,0.976-2.397c0-0.93-0.325-1.724-0.976-2.381
				c-0.654-0.661-1.444-0.991-2.37-0.991C76.869,0.578,76.08,0.909,75.427,1.569L75.427,1.569z M80.549,6.72
				c-0.76,0.767-1.679,1.151-2.757,1.151c-1.078,0-1.996-0.384-2.752-1.151c-0.754-0.763-1.13-1.688-1.13-2.775
				c0-1.076,0.38-1.995,1.141-2.759c0.756-0.76,1.67-1.14,2.741-1.14c1.078,0,1.997,0.38,2.757,1.14
				c0.76,0.76,1.14,1.679,1.14,2.759C81.689,5.028,81.309,5.953,80.549,6.72L80.549,6.72z M72.101,25.586
				c0,2.429-0.887,4.288-2.664,5.576c-1.775,1.289-4.201,1.934-7.274,1.934c-1.672,0-3.141-0.225-4.41-0.674
				c-1.269-0.45-2.336-1.042-3.201-1.777c-0.866-0.734-1.516-1.574-1.947-2.518c-0.433-0.944-0.65-1.926-0.65-2.945
				c0-0.15,0.074-0.225,0.225-0.225h5.148c0.148,0,0.223,0.075,0.223,0.225c0,0.719,0.366,1.393,1.097,2.023
				c0.731,0.63,1.903,0.945,3.515,0.945c0.477,0,0.984-0.03,1.522-0.09c0.537-0.06,1.03-0.18,1.478-0.36
				c0.447-0.18,0.82-0.442,1.119-0.787c0.298-0.344,0.448-0.787,0.448-1.326c0-0.479-0.15-0.854-0.448-1.124
				c-0.299-0.27-0.679-0.472-1.142-0.607c-0.463-0.135-0.962-0.225-1.5-0.27c-0.537-0.045-1.029-0.097-1.477-0.158
				c-1.164-0.119-2.328-0.285-3.492-0.495c-1.164-0.209-2.215-0.562-3.156-1.057c-0.94-0.494-1.702-1.169-2.283-2.023
				c-0.582-0.854-0.873-1.986-0.873-3.395c0-0.959,0.223-1.866,0.67-2.721c0.446-0.855,1.079-1.596,1.897-2.226
				c0.818-0.63,1.801-1.131,2.947-1.506c1.146-0.375,2.42-0.562,3.82-0.562c1.429,0,2.738,0.165,3.93,0.495
				c1.191,0.33,2.218,0.832,3.082,1.506c0.862,0.674,1.54,1.506,2.031,2.496c0.491,0.989,0.738,2.129,0.738,3.418
				c0,0.15-0.06,0.224-0.178,0.224h-4.973c-0.149,0-0.222-0.074-0.222-0.224c0-0.3-0.075-0.63-0.224-0.99
				c-0.149-0.36-0.396-0.681-0.739-0.967c-0.343-0.284-0.799-0.524-1.365-0.72c-0.568-0.194-1.254-0.292-2.06-0.292
				c-1.342,0-2.343,0.195-2.999,0.585c-0.657,0.39-0.985,0.884-0.985,1.484c0,0.36,0.113,0.652,0.336,0.876
				c0.224,0.226,0.522,0.405,0.895,0.54c0.373,0.135,0.799,0.247,1.276,0.337c0.477,0.089,0.97,0.165,1.477,0.224
				c0.985,0.12,2.082,0.263,3.291,0.427c1.21,0.165,2.335,0.48,3.38,0.944c1.044,0.466,1.925,1.147,2.641,2.046
				C71.743,22.753,72.101,23.997,72.101,25.586L72.101,25.586z M41.777,30.982c-0.478,0.511-1.172,0.99-2.081,1.44
				c-0.91,0.449-1.844,0.674-2.798,0.674c-1.881,0-3.448-0.292-4.701-0.877c-1.253-0.585-2.268-1.372-3.044-2.361
				c-0.777-0.988-1.328-2.128-1.656-3.417c-0.329-1.289-0.493-2.638-0.493-4.047V10.116c0-0.15,0.074-0.225,0.224-0.225h4.924
				c0.149,0,0.224,0.075,0.224,0.225v12.277c0,0.69,0.088,1.371,0.268,2.046c0.179,0.675,0.47,1.29,0.873,1.843
				c0.404,0.555,0.918,1.006,1.545,1.35c0.627,0.346,1.388,0.517,2.283,0.517c0.865,0,1.611-0.15,2.238-0.45
				c0.627-0.3,1.141-0.696,1.545-1.192c0.402-0.494,0.694-1.057,0.873-1.686c0.179-0.63,0.268-1.289,0.268-1.979V10.116
				c0-0.15,0.074-0.225,0.224-0.225h4.969c0.118,0,0.179,0.075,0.179,0.225v22.306c0,0.149-0.075,0.224-0.223,0.224h-4.253
				c-0.209,0-0.358-0.09-0.448-0.269l-0.448-1.35c-0.06-0.089-0.134-0.149-0.224-0.179C41.956,30.818,41.866,30.863,41.777,30.982
				L41.777,30.982z M5.373,21.269c0,2.039,0.476,3.696,1.432,4.97c0.955,1.274,2.387,1.911,4.298,1.911
				c1.88,0,3.274-0.584,4.185-1.754c0.911-1.169,1.365-2.877,1.365-5.126c0-2.038-0.454-3.694-1.365-4.969
				c-0.91-1.274-2.305-1.911-4.185-1.911c-1.911,0-3.343,0.637-4.298,1.911C5.849,17.574,5.373,19.231,5.373,21.269L5.373,21.269z
				 M0,21.269c0-1.738,0.269-3.335,0.806-4.789C1.343,15.026,2.074,13.774,3,12.725c0.924-1.049,2.007-1.859,3.246-2.429
				c1.237-0.569,2.558-0.854,3.961-0.854c1.314,0,2.492,0.202,3.536,0.607c1.045,0.405,1.897,0.922,2.552,1.551
				c0.149,0.151,0.27,0.151,0.358,0l0.448-1.439c0.06-0.18,0.209-0.27,0.448-0.27h4.253c0.149,0,0.224,0.075,0.224,0.225v21.856
				c0,1.529-0.276,2.908-0.829,4.137c-0.552,1.228-1.32,2.278-2.305,3.148c-0.984,0.869-2.141,1.544-3.47,2.023
				C14.094,41.76,12.654,42,11.103,42c-1.433,0-2.761-0.202-3.984-0.608c-1.224-0.404-2.291-0.944-3.201-1.619
				c-0.911-0.674-1.619-1.461-2.126-2.36C1.283,36.514,1.03,35.569,1.03,34.58c0-0.15,0.075-0.225,0.224-0.225h4.834
				c0.12,0,0.208,0.075,0.268,0.225c0.03,0.15,0.135,0.368,0.313,0.653c0.18,0.284,0.455,0.562,0.829,0.832
				c0.373,0.269,0.85,0.502,1.433,0.697c0.582,0.195,1.305,0.293,2.171,0.293c1.044,0,1.909-0.144,2.596-0.427
				c0.686-0.286,1.246-0.66,1.679-1.125c0.432-0.466,0.745-1.005,0.94-1.619c0.193-0.614,0.305-1.251,0.335-1.911v-0.765v-0.18
				c0-0.089-0.044-0.149-0.134-0.179c-0.09-0.03-0.165-0.016-0.225,0.045c-0.178,0.18-0.447,0.398-0.805,0.652
				c-0.357,0.256-0.799,0.495-1.32,0.72c-0.522,0.226-1.119,0.42-1.791,0.585c-0.671,0.165-1.395,0.247-2.171,0.247
				c-1.403,0-2.724-0.285-3.961-0.854C5.007,31.672,3.924,30.863,3,29.813c-0.926-1.05-1.657-2.294-2.194-3.733
				C0.269,24.642,0,23.038,0,21.269L0,21.269z"/>
		</g>
	</g>
</g>
</svg>
