<?xml version="1.0" encoding="utf-8"?>
<!-- Generator: Adobe Illustrator 17.0.0, SVG Export Plug-In . SVG Version: 6.00 Build 0)  -->
<!DOCTYPE svg PUBLIC "-//W3C//DTD SVG 1.1//EN" "http://www.w3.org/Graphics/SVG/1.1/DTD/svg11.dtd">
<svg version="1.1" id="Layer_1" xmlns:sketch="http://www.bohemiancoding.com/sketch/ns"
	 xmlns="http://www.w3.org/2000/svg" xmlns:xlink="http://www.w3.org/1999/xlink" x="0px" y="0px" width="73px" height="73px"
	 viewBox="-49 -49 73 73" enable-background="new -49 -49 73 73" xml:space="preserve">
<g>
	<path id="path-1" fill="#5D5D5D" d="M-12.564-32.909c2.687,0,5.039,2.24,5.039,4.928v14.334L3.451-6.817
		c1.23,0.672,1.79,2.019,1.79,3.359c0,1.009-0.337,2.019-1.008,3.022C3.334,0.905,1.771,1.465,0.314,1.465
		c-1.009,0-1.902-0.337-2.799-0.781l-13.549-8.621c-1.23-0.781-1.901-2.46-1.79-4.14V-27.98
		C-17.831-30.669-15.481-32.909-12.564-32.909L-12.564-32.909z M-12.564-48.254c-19.818,0-35.832,16.126-35.832,35.833
		c0,19.708,16.014,35.833,35.832,35.833c19.596,0,35.833-16.125,35.833-35.833C23.269-32.128,7.032-48.254-12.564-48.254
		L-12.564-48.254z"/>
</g>
<title>Clip 2</title>
<desc>Created with Sketch.</desc>
<g id="Page-1" sketch:type="MSPage">
	<g id="oparador---perfil-cliente" transform="translate(-975.000000, -500.000000)" sketch:type="MSArtboardGroup">
		<g id="Imported-Layers-Copy-3" transform="translate(975.000000, 500.000000)" sketch:type="MSLayerGroup">
			<g id="Clip-2">
			</g>
		</g>
	</g>
</g>
</svg>
