<?xml version="1.0" encoding="utf-8"?>
<!-- Generator: Adobe Illustrator 17.0.0, SVG Export Plug-In . SVG Version: 6.00 Build 0)  -->
<!DOCTYPE svg PUBLIC "-//W3C//DTD SVG 1.1//EN" "http://www.w3.org/Graphics/SVG/1.1/DTD/svg11.dtd">
<svg version="1.1" id="Layer_1" xmlns:sketch="http://www.bohemiancoding.com/sketch/ns"
	 xmlns="http://www.w3.org/2000/svg" xmlns:xlink="http://www.w3.org/1999/xlink" x="0px" y="0px" width="56.693px"
	 height="56.693px" viewBox="-14.846 -15.846 56.693 56.693" enable-background="new -14.846 -15.846 56.693 56.693"
	 xml:space="preserve">
<title>send</title>
<desc>Created with Sketch.</desc>
<g id="Page-1" sketch:type="MSPage">
	<g id="Home" transform="translate(-1016.000000, -500.000000)" sketch:type="MSArtboardGroup">
		<g id="send">
			<g sketch:type="MSShapeGroup">
				<path id="path-1" fill="#5D5D5D" d="M1055.309,511.802c-0.047-0.028-51.48-22.464-51.48-22.464
					c-0.135-0.059-0.273-0.088-0.415-0.088c-0.198,0-0.392,0.053-0.561,0.163c-0.292,0.189-0.464,0.512-0.464,0.854v20.346
					c0,0.549,0.433,0.995,0.986,1.016l50.902,2.021l-50.902,2.018c-0.553,0.022-0.986,0.471-0.986,1.016v20.346
					c0,0.339,0.173,0.666,0.464,0.854c0.169,0.11,0.364,0.166,0.561,0.166c0.138,0,0.28-0.028,0.411-0.088l18.946-8.261
					c10.658-4.647,31.976-13.943,31.976-13.943c0.988-0.377,1.864-1.054,1.864-2.125
					C1056.611,512.753,1056.068,512.203,1055.309,511.802z"/>
			</g>
			<g>
				<path id="path-1_1_" fill="#5D5D5D" d="M1055.309,511.802c-0.047-0.028-51.48-22.464-51.48-22.464
					c-0.135-0.059-0.273-0.088-0.415-0.088c-0.198,0-0.392,0.053-0.561,0.163c-0.292,0.189-0.464,0.512-0.464,0.854v20.346
					c0,0.549,0.433,0.995,0.986,1.016l50.902,2.021l-50.902,2.018c-0.553,0.022-0.986,0.471-0.986,1.016v20.346
					c0,0.339,0.173,0.666,0.464,0.854c0.169,0.11,0.364,0.166,0.561,0.166c0.138,0,0.28-0.028,0.411-0.088l18.946-8.261
					c10.658-4.647,31.976-13.943,31.976-13.943c0.988-0.377,1.864-1.054,1.864-2.125
					C1056.611,512.753,1056.068,512.203,1055.309,511.802z"/>
			</g>
		</g>
	</g>
</g>
</svg>
