<?xml version="1.0" encoding="utf-8"?>
<!-- Generator: Adobe Illustrator 17.0.0, SVG Export Plug-In . SVG Version: 6.00 Build 0)  -->
<!DOCTYPE svg PUBLIC "-//W3C//DTD SVG 1.1//EN" "http://www.w3.org/Graphics/SVG/1.1/DTD/svg11.dtd">
<svg version="1.1" id="Layer_1" xmlns:sketch="http://www.bohemiancoding.com/sketch/ns"
	 xmlns="http://www.w3.org/2000/svg" xmlns:xlink="http://www.w3.org/1999/xlink" x="0px" y="0px" width="56.693px"
	 height="56.693px" viewBox="-21.846 -23.346 56.693 56.693" enable-background="new -21.846 -23.346 56.693 56.693"
	 xml:space="preserve">
<title>Page 1</title>
<desc>Created with Sketch.</desc>
<g id="Page-1_1_" sketch:type="MSPage">
	<g id="oparador---perfil-cliente" transform="translate(-613.000000, -159.000000)" sketch:type="MSArtboardGroup">
		<g id="Page-1" transform="translate(613.000000, 159.000000)" sketch:type="MSLayerGroup">
			<path id="Fill-1" sketch:type="MSShapeGroup" fill="#262E31" d="M17.364-5.848h-1.688v-4.127c0-1.063-0.882-1.926-1.969-1.926
				H-0.362c-1.087,0-1.969,0.863-1.969,1.926v4.127h-1.688v-4.127c0-1.971,1.642-3.577,3.658-3.577h14.068
				c2.016,0,3.658,1.605,3.658,3.577V-5.848z"/>
			<path id="Fill-2" sketch:type="MSShapeGroup" fill="#262E31" d="M32.557-5.297v33.014h-51.77V-5.297H32.557L32.557-5.297z
				 M32.557-6.948h-51.77c-0.932,0-1.688,0.808-1.688,1.72v33.014c0,0.911,0.756,1.582,1.688,1.582h51.77
				c0.932,0,1.688-0.671,1.688-1.582V-5.228C34.245-6.14,33.489-6.948,32.557-6.948L32.557-6.948z"/>
			<path id="Fill-3" sketch:type="MSShapeGroup" fill="#262E31" d="M33.401,13.136c-0.466,0-0.844,0.37-0.844,0.825
				c0,1.132-0.958,2.201-1.969,2.201h-47.831c-1.011,0-1.969-1.069-1.969-2.201c0-0.456-0.378-0.825-0.844-0.825
				c-0.466,0-0.844,0.37-0.844,0.825c0,2.052,1.708,3.852,3.658,3.852H1.045v1.926c0,0.456,0.378,0.825,0.844,0.825h9.566
				c0.466,0,0.844-0.37,0.844-0.825v-1.926h18.288c1.949,0,3.658-1.8,3.658-3.852C34.245,13.506,33.867,13.136,33.401,13.136
				L33.401,13.136z"/>
		</g>
	</g>
</g>
</svg>
