<?xml version="1.0" encoding="utf-8"?>
<!-- Generator: Adobe Illustrator 17.0.0, SVG Export Plug-In . SVG Version: 6.00 Build 0)  -->
<!DOCTYPE svg PUBLIC "-//W3C//DTD SVG 1.1//EN" "http://www.w3.org/Graphics/SVG/1.1/DTD/svg11.dtd">
<svg version="1.1" id="Layer_1" xmlns:sketch="http://www.bohemiancoding.com/sketch/ns"
	 xmlns="http://www.w3.org/2000/svg" xmlns:xlink="http://www.w3.org/1999/xlink" x="0px" y="0px" width="56.693px"
	 height="56.693px" viewBox="-21.846 -21.346 56.693 56.693" enable-background="new -21.846 -21.346 56.693 56.693"
	 xml:space="preserve">
<title>whatsapp copy@2x</title>
<desc>Created with Sketch.</desc>
<path fill="#5D5D5D" d="M6.508-20.687H6.492v-0.001c-15.177,0-27.523,12.349-27.523,27.531c0,6.021,1.942,11.605,5.243,16.137
	l-3.431,10.229l10.582-3.382c4.352,2.881,9.546,4.548,15.145,4.548c15.177,0,27.523-12.35,27.523-27.531
	C34.031-8.338,21.685-20.687,6.508-20.687z M22.527,18.19c-0.664,1.877-3.301,3.431-5.405,3.885c-1.44,0.307-3.317,0.55-9.644-2.072
	C-0.611,16.652-5.822,8.43-6.226,7.896c-0.388-0.534-3.268-4.354-3.268-8.303s2.006-5.875,2.815-6.701
	c0.663-0.68,1.764-0.987,2.816-0.987c0.34,0,0.647,0.016,0.922,0.032c0.809,0.033,1.213,0.081,1.747,1.36
	c0.664,1.602,2.281,5.551,2.476,5.956C1.476-0.342,1.67,0.208,1.395,0.742c-0.259,0.55-0.485,0.793-0.89,1.263
	C0.1,2.474-0.288,2.83-0.693,3.332c-0.372,0.437-0.793,0.907-0.323,1.716c0.469,0.793,2.087,3.431,4.466,5.551
	c3.075,2.735,5.566,3.61,6.456,3.982c0.663,0.275,1.456,0.21,1.942-0.308c0.615-0.663,1.375-1.764,2.152-2.848
	c0.55-0.777,1.245-0.874,1.974-0.599c0.744,0.259,4.677,2.201,5.485,2.606c0.809,0.405,1.343,0.599,1.537,0.939
	C23.191,14.71,23.191,16.312,22.527,18.19z"/>
</svg>
